<?xml version="1.0" encoding="UTF-8" standalone="no"?><!DOCTYPE svg PUBLIC "-//W3C//DTD SVG 1.1//EN" "http://www.w3.org/Graphics/SVG/1.1/DTD/svg11.dtd"><svg width="100%" height="100%" viewBox="0 0 601 646" version="1.1" xmlns="http://www.w3.org/2000/svg" xmlns:xlink="http://www.w3.org/1999/xlink" xml:space="preserve" xmlns:serif="http://www.serif.com/" style="fill-rule:evenodd;clip-rule:evenodd;stroke-linejoin:round;stroke-miterlimit:2;"><path d="M388.785,0.091c0.648,-0.03 1.296,-0.06 1.963,-0.091c2.088,0.465 3.359,1.154 4.837,2.71c1.902,3.496 1.236,7.971 1.16,11.833c-0.007,1.02 -0.012,2.041 -0.016,3.061c-0.014,2.677 -0.051,5.354 -0.092,8.03c-0.039,2.735 -0.056,5.47 -0.075,8.205c-0.04,5.361 -0.104,10.72 -0.183,16.08c0.754,-0.024 0.754,-0.024 1.524,-0.048c2.289,-0.062 4.577,-0.101 6.867,-0.14c0.791,-0.025 1.582,-0.05 2.398,-0.076c5.893,-0.074 5.893,-0.074 8.843,1.682c2.13,2.463 2.273,4.223 2.511,7.456c-0.645,2.669 -2.01,3.692 -4.143,5.376c-2.322,0.548 -4.583,0.526 -6.961,0.498c-0.668,0.004 -1.337,0.007 -2.025,0.011c-1.41,0.002 -2.819,-0.004 -4.229,-0.02c-2.153,-0.02 -4.304,-0 -6.458,0.024c-1.372,-0.003 -2.744,-0.008 -4.116,-0.015c-0.641,0.008 -1.283,0.015 -1.944,0.023c-3.242,-0.064 -4.623,-0.222 -7.28,-2.24c-2.594,-3.543 -2.339,-6.96 -2.31,-11.23c0.001,-0.893 0.001,-0.893 0.003,-1.803c0.004,-1.896 0.014,-3.791 0.023,-5.686c0.004,-1.287 0.007,-2.574 0.01,-3.861c0.009,-3.15 0.022,-6.301 0.037,-9.451c-1.842,0.8 -3.684,1.601 -5.526,2.401c-1.571,0.683 -3.142,1.365 -4.714,2.047c-3.596,1.562 -7.191,3.128 -10.775,4.719c-0.55,0.244 -1.1,0.487 -1.667,0.738c-1.015,0.45 -2.03,0.903 -3.044,1.358c-3.357,1.487 -3.357,1.487 -5.024,1.487c1.983,4.478 3.989,8.945 6.015,13.403c0.581,1.281 1.162,2.561 1.743,3.842c0.301,0.665 0.603,1.33 0.914,2.015c5.224,11.521 10.404,23.059 15.493,34.641c0.457,1.042 0.915,2.084 1.373,3.125c0.231,0.525 0.462,1.051 0.7,1.592c1.971,4.481 3.959,8.954 5.951,13.426c0.319,0.717 0.638,1.434 0.968,2.173c0.652,1.465 1.304,2.929 1.956,4.393c5.054,11.349 10.077,22.709 14.993,34.118c2.412,5.596 4.856,11.177 7.377,16.725c1.264,2.806 2.347,5.61 3.267,8.547c0.932,0.11 1.864,0.22 2.824,0.334c69.621,8.517 69.621,8.517 87.926,26.666c4.883,6.357 7.478,12.197 6.75,20.25c-1.376,8.652 -6.831,15.049 -13.588,20.288c-5.692,3.849 -11.402,6.919 -17.818,9.384c-0.74,0.287 -1.479,0.574 -2.241,0.87c-16.437,6.208 -16.437,6.208 -24.103,6.208l0,118.5c12.764,-5.106 21.354,-8.761 30.75,-18c0.801,-0.786 0.801,-0.786 1.617,-1.588c6.728,-7.064 10.243,-15.118 11.883,-24.662c-0.681,-0.083 -1.361,-0.166 -2.062,-0.252c-5.48,-1.12 -9.817,-5.774 -12.938,-10.248c-4.341,-7.239 -6.826,-15.42 -4.734,-23.821c2.675,-7.992 7.366,-14.826 14.343,-19.632c3.783,-1.261 7.583,-1.7 11.374,-0.217c1.918,1.282 2.896,2.679 3.445,4.904c0.247,3.532 -0.137,5.888 -2.444,8.625c-0.81,0.815 -1.638,1.613 -2.484,2.391l-3.75,3.75c-1.009,2.018 -0.904,3.654 -0.937,5.906c-0.02,0.787 -0.039,1.574 -0.059,2.385c0.275,2.465 0.92,3.359 2.496,5.209l0,1.5c4.531,1.703 8.672,2.617 13.5,3c0.031,-0.928 0.062,-1.856 0.094,-2.813c0.909,-8.022 5.825,-15.134 11.924,-20.197c6.882,-4.994 14.77,-7.296 23.232,-6.24c8.214,1.691 15.161,5.862 20.203,12.609c4.386,6.916 6.401,13.681 5.297,21.891c-2.336,8.736 -6.486,15.501 -14.25,20.25c-5.214,2.688 -9.289,3.851 -15.187,3.797c-0.948,-0.007 -1.895,-0.014 -2.872,-0.021c-0.723,-0.008 -1.446,-0.017 -2.191,-0.026c-0.07,1.276 -0.07,1.276 -0.141,2.578c-1.679,14.162 -8.275,28.169 -17.859,38.672c-0.948,1.093 -0.948,1.093 -1.916,2.209c-15.817,18.039 -37.451,28.507 -61.084,31.541c-1.5,0.014 -3,0.016 -4.5,-0c0.004,0.535 0.007,1.069 0.011,1.62c0.083,13.054 0.145,26.107 0.183,39.161c0.02,6.313 0.046,12.626 0.089,18.939c0.038,5.507 0.062,11.014 0.07,16.521c0.005,2.912 0.016,5.823 0.044,8.735c0.025,2.75 0.033,5.499 0.027,8.25c0.002,1.471 0.022,2.942 0.043,4.413c-0.06,10.433 -3.093,19.79 -10.217,27.611c-8.024,7.874 -17.555,9.879 -28.4,9.823c-1.164,-0.001 -1.164,-0.001 -2.352,-0.003c-2.468,-0.004 -4.936,-0.014 -7.404,-0.023c-1.678,-0.004 -3.356,-0.007 -5.033,-0.01c-4.104,-0.008 -8.207,-0.023 -12.311,-0.037l0,29.25l6,0.75c13.198,4.132 23.918,12.909 30.522,24.981c2.478,5.113 2.478,5.113 2.478,8.019c0.732,-0.007 1.465,-0.013 2.219,-0.02c6.908,-0.061 13.816,-0.106 20.724,-0.135c3.551,-0.016 7.102,-0.037 10.653,-0.071c3.429,-0.033 6.857,-0.051 10.285,-0.059c1.307,-0.005 2.614,-0.016 3.92,-0.032c1.834,-0.022 3.666,-0.025 5.499,-0.024c0.538,-0.01 1.076,-0.021 1.63,-0.032c3.783,0.031 5.915,0.987 8.82,3.373c1.5,2.25 1.5,2.25 1.5,4.5c0.935,-0.016 1.869,-0.031 2.832,-0.048c3.473,-0.054 6.947,-0.088 10.42,-0.117c1.503,-0.015 3.005,-0.035 4.507,-0.061c2.161,-0.037 4.322,-0.054 6.484,-0.067c1.005,-0.023 1.005,-0.023 2.03,-0.047c3.148,-0.001 4.793,0.071 7.528,1.763c1.449,1.577 1.449,1.577 1.894,3.103c-0.189,4.096 -0.189,4.096 -1.429,5.927c-3.243,2.042 -6.728,1.655 -10.412,1.65c-0.718,0.002 -1.436,0.004 -2.176,0.006c-2.43,0.006 -4.859,0.006 -7.289,0.006c-1.75,0.003 -3.5,0.007 -5.251,0.01c-4.32,0.008 -8.641,0.013 -12.961,0.016c-5.173,0.004 -10.347,0.012 -15.52,0.02c-12.503,0.019 -25.007,0.03 -37.511,0.04c-4.14,0.003 -8.28,0.006 -12.42,0.01c-22.004,0.019 -44.007,0.036 -66.01,0.045c-5.099,0.002 -10.197,0.004 -15.296,0.007c-0.633,-0 -1.266,0 -1.919,0c-20.548,0.009 -41.096,0.033 -61.643,0.064c-21.116,0.032 -42.232,0.052 -63.348,0.056c-2.98,0.001 -5.96,0.001 -8.94,0.002c-0.587,0 -1.174,0 -1.778,0c-9.452,0.003 -18.904,0.018 -28.356,0.038c-9.495,0.02 -18.989,0.025 -28.483,0.017c-5.147,-0.004 -10.294,-0.002 -15.44,0.017c-4.707,0.017 -9.414,0.016 -14.12,0.002c-1.708,-0.002 -3.415,0.002 -5.123,0.014c-2.312,0.014 -4.623,0.005 -6.935,-0.01c-1.006,0.015 -1.006,0.015 -2.032,0.03c-3.303,-0.047 -4.642,-0.176 -7.338,-2.256c-1.465,-1.987 -1.465,-1.987 -1.981,-4.237c0.587,-2.559 1.513,-3.61 3.558,-5.221c2.878,-1.537 5.963,-1.213 9.149,-1.125c1.506,0.003 3.012,0.004 4.519,0.006c2.362,0.025 4.723,0.059 7.085,0.1c2.288,0.034 4.575,0.036 6.864,0.035c0.705,0.022 1.41,0.045 2.136,0.068c3.67,0.062 3.67,0.062 6.679,-1.766c1,-1.38 1,-1.38 1.753,-2.821c0.773,-1.276 0.773,-1.276 3.023,-2.776c2.207,-0.209 2.207,-0.209 4.937,-0.239c0.498,-0.008 0.996,-0.015 1.509,-0.023c1.643,-0.023 3.286,-0.036 4.93,-0.049c1.14,-0.014 2.281,-0.028 3.421,-0.044c3,-0.038 5.999,-0.068 8.999,-0.096c3.062,-0.03 6.123,-0.068 9.185,-0.106c6.006,-0.072 12.013,-0.136 18.019,-0.193c0.291,-0.604 0.581,-1.207 0.881,-1.829c0.391,-0.799 0.782,-1.598 1.185,-2.422c0.383,-0.789 0.766,-1.578 1.161,-2.391c1.983,-3.674 4.514,-6.745 7.273,-9.858c0.39,-0.46 0.779,-0.92 1.181,-1.395c6.894,-7.571 17.861,-13.808 28.069,-15.105l5.25,-0l0,-29.25c-2.622,0.043 -5.244,0.087 -7.945,0.132c-2.579,0.029 -5.159,0.052 -7.738,0.074c-1.773,0.019 -3.546,0.044 -5.319,0.077c-15.295,0.275 -27.295,-0.561 -39.01,-11.436c-6.027,-6.303 -9.933,-15.047 -9.918,-23.778c-0.003,-1.44 -0.003,-1.44 -0.007,-2.909c0.006,-1.051 0.011,-2.101 0.017,-3.152c0,-1.117 -0,-2.233 -0.001,-3.35c-0,-3.019 0.009,-6.039 0.019,-9.059c0.009,-3.16 0.01,-6.32 0.012,-9.48c0.005,-5.979 0.017,-11.958 0.032,-17.937c0.017,-6.809 0.025,-13.618 0.033,-20.427c0.015,-14.001 0.042,-28.003 0.075,-42.005c-0.713,0.463 -1.427,0.926 -2.162,1.402c-0.949,0.614 -1.898,1.228 -2.848,1.841c-0.468,0.304 -0.937,0.609 -1.42,0.922c-17.618,11.371 -37.595,13.842 -57.923,9.651c-1.553,-0.338 -3.101,-0.699 -4.647,-1.066c0.221,0.792 0.441,1.584 0.669,2.4c1.082,4.345 1.581,8.755 2.132,13.192c0.245,1.92 0.491,3.84 0.737,5.76c0.128,1.009 0.256,2.019 0.383,3.029c0.656,5.18 1.323,10.358 1.997,15.536c0.067,0.512 0.134,1.025 0.202,1.553c1.319,10.093 2.846,20.146 4.584,30.176c2.572,15.07 2.572,15.07 0.281,19.62c-1.659,2.33 -3.183,3.434 -5.735,4.734c-3.024,0.48 -4.742,0.619 -7.471,-0.724c-4.266,-3.105 -5.025,-7.061 -6.029,-12.026c-0.581,-3.878 -1.039,-7.764 -1.472,-11.661c-0.379,-3.403 -0.783,-6.803 -1.188,-10.203c-0.086,-0.718 -0.171,-1.436 -0.259,-2.176c-1.018,-8.428 -2.235,-16.826 -3.456,-25.226c-2.259,-15.561 -4.373,-31.137 -6.375,-46.734c-0.436,-0.036 -0.872,-0.072 -1.322,-0.11c-9.467,-0.898 -18.055,-5.2 -24.421,-12.347c-1.557,-2.037 -2.932,-4.099 -4.257,-6.293c-0.341,-0.541 -0.682,-1.083 -1.034,-1.641c-3.567,-6.959 -3.073,-16.956 -1.304,-24.392c3.407,-8.777 9.542,-15.033 17.619,-19.67c1.969,-0.797 1.969,-0.797 4.219,-0.797c-0.247,-0.495 -0.495,-0.99 -0.75,-1.5c-0.212,-1.447 -0.387,-2.9 -0.545,-4.354c-0.106,-0.944 -0.211,-1.888 -0.32,-2.86c-0.086,-0.775 -0.086,-0.775 -0.173,-1.564c-1.329,-11.971 -2.882,-23.911 -4.493,-35.847c-0.111,-0.826 -0.223,-1.653 -0.338,-2.504c-1.199,-8.885 -2.427,-17.765 -3.72,-26.638c-0.105,-0.727 -0.211,-1.454 -0.32,-2.203c-0.495,-3.407 -0.996,-6.814 -1.508,-10.219c-0.178,-1.21 -0.355,-2.421 -0.533,-3.632c-0.082,-0.531 -0.164,-1.061 -0.248,-1.607c-1.408,-9.709 -1.408,-9.709 0.173,-12.688c1.672,-2.106 3.405,-3.94 6.025,-4.634c3.557,0.194 6.245,0.692 9,3c2.874,4.341 3.692,8.831 4.336,13.913c0.156,1.129 0.156,1.129 0.316,2.28c0.334,2.429 0.654,4.86 0.973,7.291c0.229,1.68 0.459,3.36 0.689,5.04c0.451,3.285 0.898,6.57 1.34,9.856c0.696,5.136 1.456,10.261 2.237,15.386c1.452,9.668 2.738,19.357 4.006,29.051c0.343,2.603 0.691,5.205 1.042,7.807c0.208,1.558 0.416,3.115 0.624,4.673c0.095,0.704 0.191,1.409 0.29,2.135c0.129,0.975 0.129,0.975 0.26,1.969c0.076,0.56 0.151,1.12 0.228,1.697c0.174,1.809 0.185,3.585 0.159,5.402l1.781,0.094c8.067,1.947 14.342,7.976 18.703,14.812c3.91,7 4.603,13.132 4.266,21.094c13.639,0.489 24.094,-0.76 34.916,-9.861c9.171,-8.6 15.119,-19.861 19.834,-31.389c0.258,-0.618 0.516,-1.236 0.781,-1.873c0.952,-3.48 0.917,-6.707 0.889,-10.298c0.001,-0.762 0.001,-1.523 0.001,-2.307c-0.001,-2.508 -0.013,-5.016 -0.024,-7.524c-0.003,-1.742 -0.005,-3.485 -0.007,-5.227c-0.006,-4.579 -0.02,-9.159 -0.037,-13.738c-0.015,-4.675 -0.022,-9.351 -0.03,-14.026c-0.016,-9.169 -0.041,-18.338 -0.073,-27.507c-0.453,-0.149 -0.905,-0.298 -1.372,-0.452c-2.071,-0.682 -4.141,-1.368 -6.211,-2.053c-0.712,-0.235 -1.424,-0.469 -2.158,-0.71c-4.908,-1.628 -9.662,-3.403 -14.306,-5.691c-0.65,-0.316 -1.301,-0.632 -1.971,-0.958c-10.754,-5.376 -21.486,-13.396 -25.966,-24.917c-0.96,-5.058 -1.496,-9.826 1.488,-14.271c1.948,-2.343 10.688,-11.759 17.767,-15.137c9.425,-4.498 19.304,-9.175 19.229,-10.061c6.25,-4.899 14.37,-5.661 22.031,-6.75c0.862,-0.125 1.724,-0.25 2.611,-0.379c6.71,-0.946 13.432,-1.728 20.171,-2.434c1.371,-0.143 1.371,-0.143 2.769,-0.29c4.158,-0.415 8.239,-0.769 12.418,-0.647c0.157,-0.572 0.313,-1.145 0.475,-1.734c1.439,-3.883 3.434,-7.396 5.431,-11.016c0.438,-0.801 0.876,-1.602 1.327,-2.428c1.335,-2.442 2.676,-4.883 4.017,-7.322c1.424,-2.593 2.846,-5.186 4.266,-7.781c0.356,-0.652 0.713,-1.304 1.081,-1.975c3.81,-6.989 7.521,-14.03 11.237,-21.069c3.652,-6.918 7.33,-13.82 11.072,-20.691c3.495,-6.416 6.898,-12.875 10.26,-19.361c2.535,-4.878 5.139,-9.712 7.787,-14.529c3.224,-5.865 6.35,-11.773 9.422,-17.719c4.182,-8.089 8.477,-16.106 12.891,-24.07c0.917,-1.683 1.799,-3.379 2.669,-5.086c0.386,-0.735 0.386,-0.735 0.78,-1.484c0.662,-1.26 1.308,-2.529 1.953,-3.799c3.719,-4.552 11.031,-4.991 16.523,-6c0.869,-0.163 1.737,-0.327 2.632,-0.496c2.829,-0.532 5.659,-1.057 8.49,-1.581c1.956,-0.366 3.913,-0.733 5.869,-1.1c15.268,-2.859 30.547,-5.664 45.836,-8.406c3.161,-0.568 6.319,-1.151 9.475,-1.744c2.643,-0.478 5.223,-0.868 7.913,-0.937Z" style="fill:#011c33;fill-rule:nonzero;"/><path d="M205.457,382.819c0.635,-0.002 1.271,-0.004 1.926,-0.005c2.128,-0.005 4.257,-0.005 6.385,-0.004c1.527,-0.002 3.053,-0.005 4.58,-0.008c4.146,-0.006 8.293,-0.008 12.44,-0.008c2.591,-0.001 5.183,-0.003 7.774,-0.005c9.043,-0.007 18.087,-0.01 27.13,-0.009c8.425,0 16.851,-0.007 25.276,-0.019c7.237,-0.01 14.473,-0.014 21.709,-0.014c4.321,0.001 8.642,-0.002 12.962,-0.01c4.066,-0.007 8.131,-0.007 12.197,-0.001c1.489,0 2.979,-0.001 4.468,-0.006c2.039,-0.006 4.078,-0.002 6.116,0.004c0.585,-0.004 1.17,-0.008 1.772,-0.012c7.327,0.045 14.913,1.695 20.555,6.648c1.196,1.319 2.179,2.542 3.132,4.049c0.762,1.161 0.762,1.161 1.539,2.346c2.405,4.897 1.879,10.388 1.849,15.714c0.004,1.222 0.01,2.445 0.016,3.668c0.014,3.308 0.009,6.616 -0.001,9.925c-0.008,3.471 -0,6.942 0.004,10.412c0.006,5.83 -0.001,11.659 -0.016,17.488c-0.016,6.726 -0.011,13.452 0.006,20.178c0.013,5.787 0.015,11.574 0.007,17.361c-0.004,3.451 -0.005,6.902 0.005,10.353c0.009,3.246 0.003,6.493 -0.015,9.74c-0.004,1.187 -0.003,2.373 0.004,3.56c0.041,7.968 -0.291,14.9 -5.976,20.958c-5.604,5.069 -11.094,6.276 -18.436,6.242c-0.997,0.005 -0.997,0.005 -2.014,0.009c-2.217,0.008 -4.434,0.005 -6.651,0.002c-1.593,0.003 -3.186,0.007 -4.779,0.012c-4.322,0.01 -8.644,0.01 -12.966,0.008c-3.61,-0.001 -7.22,0.003 -10.83,0.007c-8.519,0.008 -17.037,0.008 -25.555,0.004c-8.783,-0.005 -17.566,0.004 -26.348,0.02c-7.545,0.014 -15.091,0.018 -22.636,0.016c-4.505,-0.002 -9.009,0 -13.513,0.011c-4.237,0.009 -8.473,0.008 -12.71,-0.002c-1.552,-0.002 -3.105,0 -4.657,0.006c-2.124,0.008 -4.248,0.002 -6.372,-0.007c-0.61,0.005 -1.22,0.011 -1.848,0.016c-6.533,-0.061 -11.78,-1.831 -16.562,-6.318c-3.804,-4.345 -5.136,-9.119 -5.155,-14.8c-0.003,-0.518 -0.006,-1.036 -0.009,-1.57c-0.008,-1.741 -0.011,-3.482 -0.014,-5.223c-0.004,-1.247 -0.009,-2.494 -0.015,-3.741c-0.015,-4.098 -0.023,-8.196 -0.031,-12.294c-0.003,-1.412 -0.006,-2.823 -0.009,-4.234c-0.014,-6.631 -0.025,-13.261 -0.031,-19.892c-0.007,-7.652 -0.027,-15.303 -0.057,-22.954c-0.023,-5.916 -0.034,-11.831 -0.037,-17.746c-0.001,-3.533 -0.008,-7.065 -0.027,-10.597c-0.018,-3.325 -0.021,-6.649 -0.013,-9.974c0,-1.218 -0.004,-2.436 -0.015,-3.654c-0.057,-7.164 0.199,-12.263 4.572,-18.179c6.027,-6.012 12.55,-7.488 20.874,-7.471Z" style="fill:#fcfdfd;fill-rule:nonzero;"/><path d="M203.007,245.378c0.668,-0.004 1.335,-0.008 2.023,-0.012c2.223,-0.011 4.447,-0.005 6.67,-0c1.6,-0.004 3.199,-0.01 4.799,-0.016c4.335,-0.013 8.671,-0.012 13.007,-0.008c3.623,0.002 7.246,-0.002 10.869,-0.007c8.55,-0.01 17.1,-0.009 25.649,-0.001c8.812,0.009 17.624,-0.002 26.436,-0.022c7.574,-0.016 15.147,-0.021 22.721,-0.017c4.519,0.003 9.039,0.001 13.559,-0.012c4.251,-0.012 8.503,-0.009 12.754,0.005c1.557,0.003 3.114,0.001 4.671,-0.007c15.705,-0.073 15.705,-0.073 23.132,4.815c1.792,1.782 3.071,3.593 4.395,5.745c0.444,0.712 0.889,1.425 1.347,2.159c1.482,2.609 1.935,4.576 1.95,7.526c0.009,1.031 0.009,1.031 0.017,2.083c0.002,0.753 0.004,1.506 0.006,2.282c0.005,0.794 0.01,1.588 0.015,2.406c0.015,2.634 0.023,5.267 0.031,7.901c0.003,0.9 0.006,1.8 0.009,2.727c0.016,4.763 0.026,9.527 0.033,14.291c0.009,4.915 0.035,9.83 0.064,14.745c0.02,3.783 0.026,7.567 0.029,11.35c0.004,1.812 0.012,3.623 0.026,5.434c0.019,2.54 0.018,5.08 0.013,7.62c0.014,1.116 0.014,1.116 0.029,2.254c-0.052,6.925 -2.181,12.349 -7.132,17.3c-5.472,4.079 -10.449,5.476 -17.203,5.451c-0.666,0.003 -1.333,0.006 -2.02,0.01c-2.23,0.009 -4.46,0.008 -6.689,0.007c-1.601,0.004 -3.202,0.009 -4.802,0.015c-4.345,0.013 -8.69,0.017 -13.035,0.018c-2.716,0.001 -5.431,0.004 -8.147,0.008c-9.476,0.014 -18.951,0.02 -28.427,0.019c-8.829,-0.001 -17.658,0.015 -26.487,0.039c-7.584,0.019 -15.167,0.027 -22.751,0.026c-4.528,-0 -9.055,0.004 -13.583,0.02c-4.26,0.015 -8.519,0.015 -12.778,0.004c-1.561,-0.002 -3.122,0.002 -4.683,0.011c-2.136,0.011 -4.271,0.004 -6.406,-0.007c-0.614,0.008 -1.227,0.015 -1.859,0.023c-5.567,-0.066 -11.213,-1.993 -15.328,-5.898c-7.295,-8.644 -6.198,-18.702 -6.123,-29.4c-0.001,-1.87 -0.004,-3.739 -0.008,-5.608c-0.003,-3.905 0.009,-7.809 0.034,-11.714c0.029,-4.992 0.022,-9.982 0.004,-14.974c-0.011,-3.856 -0.003,-7.711 0.01,-11.566c0.004,-1.841 0.004,-3.681 -0.003,-5.521c-0.006,-2.575 0.012,-5.149 0.037,-7.725c-0.006,-0.751 -0.013,-1.502 -0.019,-2.277c0.097,-5.934 1.685,-10.876 5.736,-15.326c5.096,-4.909 10.544,-6.226 17.408,-6.176Z" style="fill:#fdfefe;fill-rule:nonzero;"/><path d="M370.879,390.419c3.715,3.184 5.745,6.69 6.279,11.526c0.112,3.181 0.127,6.351 0.109,9.534c0.004,1.222 0.01,2.445 0.016,3.668c0.014,3.308 0.009,6.616 -0.001,9.925c-0.008,3.471 -0,6.942 0.004,10.412c0.006,5.83 -0.001,11.659 -0.016,17.488c-0.016,6.726 -0.011,13.452 0.006,20.178c0.013,5.787 0.015,11.574 0.007,17.361c-0.004,3.451 -0.005,6.902 0.005,10.353c0.009,3.246 0.003,6.493 -0.015,9.74c-0.004,1.187 -0.003,2.373 0.004,3.56c0.041,7.968 -0.291,14.9 -5.976,20.958c-5.604,5.069 -11.094,6.276 -18.436,6.242c-0.997,0.005 -0.997,0.005 -2.014,0.009c-2.217,0.008 -4.434,0.005 -6.651,0.002c-1.593,0.003 -3.186,0.007 -4.779,0.012c-4.322,0.01 -8.644,0.01 -12.966,0.008c-3.61,-0.001 -7.22,0.003 -10.83,0.007c-8.519,0.008 -17.037,0.008 -25.555,0.004c-8.783,-0.005 -17.566,0.004 -26.348,0.02c-7.545,0.014 -15.091,0.018 -22.636,0.016c-4.505,-0.002 -9.009,0 -13.513,0.011c-4.237,0.009 -8.473,0.008 -12.71,-0.002c-1.552,-0.002 -3.105,0 -4.657,0.006c-2.124,0.008 -4.248,0.002 -6.372,-0.007c-0.61,0.005 -1.22,0.011 -1.848,0.016c-5.186,-0.048 -9.613,-1.31 -14.154,-3.813c-1.739,-2.076 -1.907,-3.541 -1.714,-6.222c0.753,-4.363 3.086,-6.788 6.326,-9.539c3.715,-2.518 7.215,-2.687 11.595,-2.662c0.644,-0.002 1.289,-0.004 1.952,-0.006c2.158,-0.006 4.316,-0.001 6.474,0.003c1.548,-0.002 3.095,-0.004 4.642,-0.008c3.332,-0.006 6.664,-0.008 9.995,-0.006c5.266,0.002 10.531,-0.008 15.797,-0.022c14.973,-0.035 29.946,-0.053 44.919,-0.058c8.269,-0.003 16.539,-0.016 24.809,-0.041c5.237,-0.015 10.474,-0.017 15.711,-0.009c3.254,0.002 6.508,-0.008 9.762,-0.022c1.512,-0.004 3.024,-0.003 4.535,0.003c2.06,0.009 4.119,-0.001 6.179,-0.016c0.602,0.007 1.203,0.014 1.823,0.021c2.576,-0.036 4.171,-0.17 6.293,-1.689c2.34,-3.339 2.887,-6.011 2.893,-10.062c0.007,-1.388 0.007,-1.388 0.015,-2.804c-0.001,-1.019 -0.003,-2.039 -0.005,-3.058c0.003,-1.078 0.007,-2.157 0.011,-3.235c0.009,-2.318 0.013,-4.637 0.014,-6.956c0.001,-3.669 0.015,-7.338 0.03,-11.007c0.037,-9.113 0.06,-18.226 0.076,-27.339c0.013,-7.083 0.03,-14.165 0.063,-21.248c0.016,-3.644 0.022,-7.289 0.02,-10.933c0.002,-2.271 0.012,-4.542 0.025,-6.813c0.004,-1.05 0.005,-2.1 0.001,-3.15c-0.036,-11.197 -0.036,-11.197 3.628,-15.663c2.354,-1.845 4.18,-2.929 7.178,-3.193l0,-1.5Z" style="fill:#93b0d2;fill-rule:nonzero;"/><path d="M48.649,170.986c5.375,3.746 7.713,8.979 10.531,14.744c0.463,0.923 0.928,1.846 1.393,2.768c3.342,6.691 3.342,6.691 3.572,8.449c2.707,0.433 5.237,0.255 7.965,0.04c0.95,-0.069 1.9,-0.138 2.88,-0.208c1.995,-0.147 3.99,-0.304 5.984,-0.464c0.953,-0.067 1.906,-0.134 2.887,-0.203c0.867,-0.066 1.734,-0.133 2.628,-0.202c3.345,0.08 6.039,0.879 8.801,2.78c1.614,2.45 2.17,4.68 1.839,7.56c-2.002,4.497 -5.503,7.769 -8.958,11.169c-1.513,1.572 -2.863,3.164 -4.162,4.917c-0.373,0.501 -0.746,1.002 -1.131,1.519c-1.312,3.684 0.96,7.264 2.528,10.589c0.997,2.056 2.006,4.106 3.022,6.153c1.776,3.673 3.196,6.828 3.281,10.988c-1.749,4.417 -1.749,4.417 -3.781,5.789c-4.435,0.996 -7.4,0.28 -11.548,-1.185c-0.582,-0.194 -1.164,-0.388 -1.764,-0.588c-2.847,-0.956 -5.668,-1.969 -8.475,-3.038c-0.491,-0.183 -0.983,-0.365 -1.489,-0.554c-1.335,-0.501 -2.662,-1.023 -3.989,-1.545c-3.139,-0.705 -4.596,-0.383 -7.561,0.873c-2.167,1.468 -4.144,3.119 -6.131,4.819c-11.559,9.728 -11.559,9.728 -17.696,9.641c-2.745,-1.106 -2.745,-1.106 -4.948,-3.135c-2.033,-5.668 -1.437,-10.484 -0.627,-16.369c0.227,-1.694 0.447,-3.389 0.659,-5.085c0.101,-0.743 0.203,-1.485 0.308,-2.25c0.078,-2.226 -0.261,-3.661 -1.157,-5.688c-1.086,-1.019 -1.086,-1.019 -2.539,-1.701c-0.574,-0.301 -1.149,-0.602 -1.741,-0.913c-1.8,-0.855 -3.606,-1.682 -5.426,-2.493c-0.567,-0.254 -1.134,-0.508 -1.718,-0.769c-1.139,-0.506 -2.282,-1.004 -3.429,-1.493c-3.225,-1.416 -5.692,-2.776 -8.011,-5.526c-0.86,-3.084 -0.986,-4.563 0.394,-7.473c1.883,-2.451 3.412,-3.757 6.34,-4.614c0.569,-0.168 1.138,-0.336 1.725,-0.509c0.605,-0.172 1.21,-0.344 1.834,-0.521c0.618,-0.18 1.237,-0.36 1.874,-0.546c4.342,-1.242 8.684,-2.226 13.144,-2.953c2.5,-0.723 3.613,-1.323 5.369,-3.279c0.958,-2.429 1.526,-4.915 2.097,-7.459c0.171,-0.704 0.342,-1.408 0.517,-2.133c0.881,-3.669 1.645,-7.345 2.345,-11.053c1.333,-6.31 5.776,-10.055 12.364,-8.849Z" style="fill:#041e35;fill-rule:nonzero;"/><path d="M387.379,246.419c27.425,-0.423 27.425,-0.423 36.75,8.25c5.421,5.544 7.207,11.282 7.138,18.875c0.006,0.73 0.011,1.46 0.016,2.212c0.013,2.394 0.005,4.788 -0.005,7.182c0.002,1.674 0.004,3.348 0.008,5.022c0.005,3.501 -0.002,7.002 -0.016,10.502c-0.017,4.479 -0.007,8.956 0.011,13.434c0.011,3.455 0.007,6.909 -0,10.364c-0.002,1.651 -0,3.301 0.007,4.952c0.008,2.31 -0.004,4.619 -0.021,6.929c0.006,0.676 0.012,1.353 0.019,2.049c-0.07,5.24 -1.402,9.191 -4.881,13.161c-0.488,0.404 -0.976,0.808 -1.479,1.224c-0.486,0.416 -0.973,0.832 -1.474,1.26c-4.666,3.215 -9.584,3.203 -15.073,2.584c-5.837,-1.859 -9.23,-5.979 -12.045,-11.235c-1.042,-3.347 -0.898,-6.567 -0.873,-10.052c0,-0.784 -0,-1.567 -0.001,-2.374c0,-1.7 0.003,-3.4 0.009,-5.1c0.008,-2.697 0.004,-5.393 -0.004,-8.089c-0.021,-7.667 -0.03,-15.333 -0.008,-23c0.012,-4.692 0.003,-9.384 -0.02,-14.076c-0.005,-1.783 -0.001,-3.565 0.011,-5.347c0.077,-11.828 -0.393,-19.334 -8.069,-28.727Z" style="fill:#94b1d4;fill-rule:nonzero;"/><path d="M395.629,421.169c0.697,0.155 0.697,0.155 1.408,0.313c0.609,0.136 1.218,0.271 1.846,0.411c0.604,0.134 1.208,0.268 1.83,0.407c8.48,1.879 16.927,3.568 25.578,4.422c3.77,0.379 3.77,0.379 4.588,1.197c0.072,1.272 0.091,2.546 0.09,3.82c0.001,0.828 0.002,1.656 0.003,2.508c-0.004,1.374 -0.004,1.374 -0.008,2.776c0,0.959 0,1.917 0.001,2.904c-0,2.636 -0.005,5.272 -0.01,7.908c-0.005,2.751 -0.005,5.503 -0.006,8.255c-0.002,5.214 -0.008,10.428 -0.016,15.642c-0.008,5.934 -0.012,11.869 -0.016,17.804c-0.008,12.211 -0.021,24.422 -0.038,36.633c-3.093,0.088 -6.187,0.141 -9.281,0.187c-0.867,0.026 -1.735,0.051 -2.628,0.077c-6.458,0.073 -11.889,-0.725 -17.057,-4.823c-0.449,-0.537 -0.899,-1.075 -1.362,-1.629c-0.463,-0.529 -0.926,-1.059 -1.403,-1.605c-3.566,-5.501 -3.838,-10.446 -3.774,-16.831c-0.001,-0.871 -0.001,-1.743 -0.001,-2.641c0.001,-2.865 0.019,-5.729 0.036,-8.594c0.005,-1.993 0.008,-3.985 0.01,-5.978c0.007,-4.698 0.025,-9.397 0.048,-14.096c0.025,-5.352 0.038,-10.705 0.049,-16.057c0.023,-11.003 0.063,-22.007 0.113,-33.01Z" style="fill:#92afd4;fill-rule:nonzero;"/><path d="M277.879,562.169l59.25,-0c0.163,10.441 0.163,10.441 0.328,21.094c0.048,2.191 0.096,4.381 0.145,6.639c0.015,1.742 0.029,3.484 0.04,5.226c0.04,1.35 0.04,1.35 0.081,2.727c0.005,6.261 0.005,6.261 -1.739,8.6c-1.315,1.123 -2.654,2.029 -4.105,2.964c-1.675,1.933 -1.675,1.933 -3.047,3.937c-0.686,0.958 -0.686,0.958 -1.386,1.934c-1.599,2.213 -1.599,2.213 -2.229,4.303c-1.008,2.477 -1.784,3.836 -3.838,5.576c-4.786,1.303 -10.01,0.698 -14.906,0.469c-1.389,-0.038 -2.777,-0.072 -4.166,-0.103c-3.395,-0.082 -6.785,-0.212 -10.178,-0.366c-0.183,-0.492 -0.367,-0.984 -0.556,-1.491c-1.437,-3.742 -2.877,-7.048 -5.303,-10.275c-0.469,-0.637 -0.938,-1.274 -1.421,-1.93c-1.543,-1.99 -1.543,-1.99 -3.018,-3.062c-2.331,-1.894 -3.754,-3.347 -4.414,-6.334c-0.145,-2.551 -0.129,-5.055 -0.051,-7.608c0.006,-0.821 0.011,-1.641 0.016,-2.486c0.028,-3.048 0.101,-6.095 0.169,-9.142l0.328,-20.672Z" style="fill:#fafbfc;fill-rule:nonzero;"/><path d="M214.27,402.771c0.882,-0.003 1.764,-0.006 2.672,-0.009c1.861,-0.002 3.722,0.003 5.583,0.016c2.844,0.016 5.687,-0 8.532,-0.019c1.81,0.002 3.621,0.006 5.431,0.012c0.849,-0.007 1.698,-0.013 2.572,-0.019c4.531,0.054 7.615,0.166 11.069,3.417c3.212,3.682 3.445,6.625 3.399,11.291c0.004,0.968 0.004,0.968 0.008,1.955c0.002,1.361 -0.003,2.721 -0.016,4.081c-0.016,2.068 0,4.134 0.019,6.201c-0.002,1.327 -0.006,2.655 -0.011,3.982c0.006,0.611 0.012,1.222 0.018,1.852c-0.068,4.218 -0.903,7.679 -3.417,11.138c-2.344,2.225 -3.989,2.538 -7.181,2.565c-0.839,0.012 -1.678,0.024 -2.542,0.036c-1.355,0 -1.355,0 -2.737,0.001c-1.398,0.008 -1.398,0.008 -2.825,0.017c-2.477,0.01 -4.955,0.008 -7.432,0.004c-1.513,0.002 -3.025,0.016 -4.537,0.033c-2.913,0.033 -5.824,0.039 -8.737,0.039c-0.899,0.013 -1.797,0.025 -2.723,0.038c-5.352,-0.045 -8.375,-0.46 -12.286,-4.233c-1.285,-2.116 -1.692,-3.699 -1.718,-6.161c-0.009,-0.616 -0.019,-1.232 -0.029,-1.866c-0.001,-0.66 -0.003,-1.319 -0.005,-1.998c-0.005,-0.685 -0.01,-1.369 -0.015,-2.074c-0.008,-1.446 -0.011,-2.892 -0.011,-4.338c-0.003,-2.206 -0.03,-4.411 -0.059,-6.617c-0.004,-1.407 -0.007,-2.814 -0.009,-4.221c-0.01,-0.657 -0.021,-1.313 -0.032,-1.989c0.03,-4.108 0.551,-6.545 3.378,-9.736c4.067,-3.828 8.36,-3.436 13.641,-3.398Z" style="fill:#011b31;fill-rule:nonzero;"/><path d="M336.909,281.555c5.575,4.605 9.317,9.873 10.371,17.124c0.307,7.697 -1.469,14.339 -6.26,20.443c-4.257,4.486 -9.544,7.249 -15.718,7.799c-8.473,0.19 -14.221,-1.129 -20.531,-7.011c-5.806,-6.221 -7.795,-12.317 -7.62,-20.783c0.639,-6.874 3.997,-12.28 9.228,-16.708c9.894,-6.109 20.508,-7.705 30.53,-0.864Z" style="fill:#021c33;fill-rule:nonzero;"/><path d="M237.379,280.919c5.865,4.008 9.895,9.432 11.25,16.5c0.769,7.904 -0.663,14.78 -5.391,21.281c-6.573,6.136 -13.539,8.437 -22.438,8.297c-6.77,-0.76 -12.155,-4.32 -16.705,-9.267c-4.949,-6.356 -5.592,-13.185 -4.966,-21.061c1.319,-6.201 5.05,-10.878 9.75,-15c9.231,-5.893 18.906,-6.196 28.5,-0.75Z" style="fill:#031d33;fill-rule:nonzero;"/><path d="M368.629,250.169c3.812,3.485 8,8.156 8.351,13.546c0.003,0.598 0.006,1.195 0.009,1.811c0.006,0.688 0.011,1.375 0.017,2.083c0.002,0.753 0.004,1.506 0.006,2.282c0.007,1.191 0.007,1.191 0.015,2.406c0.015,2.634 0.023,5.267 0.031,7.901c0.003,0.9 0.006,1.8 0.009,2.727c0.016,4.763 0.026,9.527 0.033,14.291c0.009,4.915 0.035,9.83 0.064,14.745c0.02,3.783 0.026,7.567 0.029,11.35c0.004,1.812 0.012,3.623 0.026,5.434c0.019,2.54 0.018,5.08 0.013,7.62c0.009,0.744 0.019,1.487 0.029,2.254c-0.052,6.925 -2.181,12.349 -7.132,17.3c-6.335,4.722 -11.71,5.477 -19.5,5.25l1.594,-1.125c3.019,-2.625 5.608,-5.779 7.406,-9.375c0.074,-1.197 0.1,-2.396 0.104,-3.595c0.004,-0.76 0.008,-1.519 0.012,-2.301c0.001,-0.836 0.002,-1.672 0.002,-2.533c0.004,-0.879 0.008,-1.757 0.012,-2.661c0.01,-2.413 0.017,-4.826 0.023,-7.239c0.009,-2.525 0.022,-5.051 0.036,-7.576c0.047,-8.605 0.087,-17.21 0.112,-25.815c0.014,-4.751 0.036,-9.502 0.066,-14.253c0.016,-2.514 0.028,-5.027 0.029,-7.541c0.004,-2.806 0.021,-5.612 0.042,-8.418c-0.003,-0.83 -0.005,-1.661 -0.007,-2.516c0.052,-4.767 0.359,-8.384 3.72,-12.062c3.182,-2.49 3.182,-2.49 4.849,-2.49l0,-1.5Z" style="fill:#94b1d2;fill-rule:nonzero;"/><path d="M46.262,193.233c1.894,0.483 2.937,0.811 4.184,2.352c0.285,0.51 0.571,1.021 0.864,1.547c0.484,0.836 0.484,0.836 0.977,1.688c0.489,0.876 0.489,0.876 0.988,1.769c2.247,4.134 2.247,4.134 5.279,7.678c3.01,0.842 5.961,0.558 9.058,0.376c1.284,-0.071 2.569,-0.135 3.854,-0.194c0.566,-0.033 1.133,-0.066 1.717,-0.1c1.538,0.073 1.538,0.073 3.964,1.269c-0.15,3.648 -2.305,5.393 -4.682,7.94c-2.977,3.27 -2.977,3.27 -4.622,7.272c0.222,1.75 0.628,3.123 1.323,4.741c0.188,0.496 0.377,0.992 0.571,1.503c0.375,0.96 0.766,1.914 1.175,2.86c0.812,2.177 0.995,4.291 1.199,6.598c-4.366,0.033 -8.284,-1.685 -12.333,-3.148c-3.321,-1.149 -3.321,-1.149 -6.782,-1.185c-3.168,1.834 -5.965,4.143 -8.819,6.424c-0.473,0.368 -0.947,0.736 -1.435,1.116c-0.426,0.34 -0.853,0.68 -1.293,1.03c-1.218,0.687 -1.218,0.687 -3.547,0.235c-0.083,-1.471 -0.164,-2.941 -0.245,-4.412c-0.057,-0.891 -0.114,-1.781 -0.173,-2.699c-0.102,-2.654 -0.102,-2.654 0.075,-4.802c0.15,-2.002 0.179,-3.461 -0.405,-5.386c-2.204,-2.228 -4.719,-3.613 -7.471,-5.075c-0.643,-0.372 -1.287,-0.744 -1.95,-1.128c-1.516,-0.876 -3.041,-1.727 -4.583,-2.556c1.476,-2.599 2.793,-3.604 5.589,-4.415c1.754,-0.463 3.514,-0.889 5.279,-1.309c2.891,-0.767 4.518,-1.338 6.716,-3.447c1.608,-2.877 2.498,-5.655 3.322,-8.831c0.306,-1.123 0.612,-2.245 0.919,-3.368c0.243,-0.91 0.487,-1.82 0.738,-2.758l0.549,-1.585Z" style="fill:#f9fbfc;fill-rule:nonzero;"/><path d="M283.15,471.094c0.649,-0.004 1.299,-0.008 1.969,-0.012c1.371,-0.005 2.742,-0.004 4.113,0.002c2.091,0.007 4.18,-0.015 6.271,-0.039c1.335,-0.001 2.671,-0 4.006,0.002c0.621,-0.009 1.242,-0.017 1.882,-0.026c4.019,0.048 6.286,0.754 9.488,3.398c3.382,3.848 3.255,7.683 3.211,12.618c-0.272,3.072 -1.063,4.675 -3.211,6.882c-3.426,2.692 -6.512,2.579 -10.684,2.549c-0.667,0.002 -1.334,0.004 -2.02,0.006c-1.407,0.002 -2.813,-0.002 -4.219,-0.012c-2.145,-0.012 -4.289,0 -6.434,0.015c-1.369,-0.002 -2.739,-0.005 -4.109,-0.009c-0.637,0.004 -1.275,0.009 -1.932,0.014c-4.697,-0.056 -7.913,-0.919 -11.383,-4.297c-2.318,-3.893 -1.801,-8.951 -1.219,-13.266c2.673,-6.617 7.84,-7.848 14.271,-7.825Z" style="fill:#94afcf;fill-rule:nonzero;"/><path d="M208.549,475.665c0.836,-0.016 1.672,-0.033 2.534,-0.051c0.901,-0.008 1.802,-0.017 2.73,-0.026c0.93,-0.01 1.86,-0.021 2.819,-0.031c1.97,-0.018 3.939,-0.031 5.909,-0.04c2.012,-0.01 4.023,-0.036 6.035,-0.077c2.908,-0.054 5.813,-0.074 8.721,-0.086c0.895,-0.023 1.79,-0.045 2.711,-0.068c5.326,0.028 8.262,0.744 12.089,4.541c1.972,2.564 1.621,4.636 1.378,7.699c-0.599,3.279 -1.581,4.922 -4.284,6.843c-2.337,1.19 -3.801,1.339 -6.409,1.353c-1.285,0.014 -1.285,0.014 -2.595,0.029c-0.918,-0.002 -1.836,-0.005 -2.782,-0.007c-0.949,0.004 -1.899,0.008 -2.877,0.012c-2.007,0.005 -4.013,0.005 -6.02,-0.003c-2.563,-0.008 -5.125,0.007 -7.689,0.029c-2.455,0.017 -4.911,0.012 -7.367,0.009c-1.374,0.013 -1.374,0.013 -2.777,0.026c-4.79,-0.04 -7.948,-0.081 -11.546,-3.398c-2.316,-3.284 -2.064,-7.409 -1.5,-11.25c2.96,-4.029 6.026,-5.42 10.92,-5.504Z" style="fill:#011a31;fill-rule:nonzero;"/><path d="M275.629,112.169l1.5,0.75c0.492,1.734 0.915,3.447 1.313,5.203c1.749,6.935 3.918,12.284 10.031,16.453c4.247,2.471 8.69,4.019 13.406,5.344l0,3c-0.634,0.119 -1.268,0.238 -1.922,0.36c-8.315,1.71 -14.259,4.405 -19.078,11.64c-2.128,4.547 -3.394,9.367 -4.5,14.25c-1.5,-0.75 -1.5,-0.75 -2.197,-2.745c-0.234,-0.842 -0.468,-1.684 -0.709,-2.552c-2.238,-7.455 -4.525,-12.877 -11.344,-17.203c-4.123,-1.851 -8.431,-3.191 -12.75,-4.5l0,-2.25c0.68,-0.219 1.359,-0.437 2.06,-0.662c7.595,-2.556 14.305,-5.107 18.679,-12.199c1.772,-3.75 2.895,-7.697 4.026,-11.678c0.735,-2.461 0.735,-2.461 1.485,-3.211Z" style="fill:#f8fbfb;fill-rule:nonzero;"/><path d="M238.363,607.685c0.746,-0.013 1.492,-0.025 2.261,-0.037c9.71,-0.006 17.467,3.746 24.505,10.443c2.266,2.272 2.931,3.94 4.5,7.078l-60.75,-0c3.426,-8.564 10.272,-13.006 18.495,-16.629c3.667,-0.909 7.226,-0.867 10.989,-0.855Z" style="fill:#f8fbfc;fill-rule:nonzero;"/><path d="M392.676,613.685c3.832,3.016 8.137,6.787 9.703,11.484l-58.5,-0c2.338,-7.014 7.068,-11.246 13.594,-14.625c11.872,-5.354 24.469,-4.427 35.203,3.141Z" style="fill:#f9fbfc;fill-rule:nonzero;"/><path d="M339.379,457.169c2.794,1.934 4.748,3.583 6,6.75c0.196,1.759 0.196,1.759 0.206,3.723c0.011,1.108 0.011,1.108 0.022,2.238c-0.001,0.793 -0.002,1.586 -0.002,2.403c0.003,0.819 0.006,1.639 0.009,2.483c0.005,1.731 0.005,3.463 0.002,5.195c-0.003,2.648 0.015,5.296 0.034,7.945c0.002,1.683 0.002,3.366 0.002,5.049c0.006,0.792 0.013,1.583 0.02,2.399c-0.03,4.794 -0.46,7.577 -3.809,11.174c-2.553,1.312 -4.967,1.495 -7.734,0.891c-2.018,-1.632 -3.341,-2.933 -4.5,-5.25c-0.087,-1.247 -0.127,-2.498 -0.145,-3.748c-0.012,-0.781 -0.024,-1.562 -0.036,-2.367c-0.033,-3.578 -0.064,-7.156 -0.081,-10.734c-0.013,-1.887 -0.033,-3.774 -0.062,-5.661c-0.041,-2.719 -0.057,-5.438 -0.068,-8.158c-0.017,-0.842 -0.034,-1.683 -0.052,-2.55c0.018,-6.538 0.018,-6.538 2.25,-9.303c2.763,-2.458 4.247,-2.906 7.944,-2.479Z" style="fill:#021a35;fill-rule:nonzero;"/><path d="M75.379,370.169c4.083,1.425 7.024,4.215 9.111,7.972c1.47,4.092 1.528,8.492 -0.052,12.556c-2.121,3.642 -5.039,6.88 -8.965,8.581c-5.27,0.465 -9.273,0.509 -13.594,-2.859c-3.852,-4.629 -5.542,-8.614 -5.455,-14.628c0.502,-4.578 3.932,-7.199 7.266,-9.973c3.414,-2.581 7.602,-2.09 11.689,-1.649Z" style="fill:#96b0ce;fill-rule:nonzero;"/><path d="M282.312,430.421c0.783,-0.004 1.567,-0.007 2.375,-0.011c1.652,-0.003 3.304,0.004 4.956,0.02c2.528,0.02 5.052,0 7.579,-0.024c1.608,0.003 3.216,0.008 4.824,0.015c1.131,-0.011 1.131,-0.011 2.285,-0.023c3.522,0.059 5.254,0.119 8.152,2.26c1.833,2.64 1.912,4.111 1.396,7.261c-1.664,2.18 -2.64,2.88 -5.25,3.75c-1.092,0.083 -2.187,0.126 -3.282,0.145c-0.992,0.018 -0.992,0.018 -2.003,0.036c-3.019,0.034 -6.038,0.064 -9.057,0.082c-1.591,0.012 -3.182,0.032 -4.772,0.061c-2.298,0.041 -4.595,0.058 -6.893,0.069c-0.708,0.017 -1.416,0.034 -2.145,0.051c-3.291,-0.01 -5.627,-0.098 -8.273,-2.18c-1.825,-2.014 -1.825,-2.014 -2.762,-4.639c0.187,-2.625 0.187,-2.625 1.937,-4.633c3.318,-2.566 6.896,-2.281 10.933,-2.24Z" style="fill:#041d32;fill-rule:nonzero;"/><path d="M545.884,632.244c1.125,-0.007 1.125,-0.007 2.272,-0.014c1.583,-0.005 3.166,-0.003 4.749,0.007c2.417,0.01 4.831,-0.016 7.248,-0.044c1.541,-0.001 3.081,0.001 4.622,0.004c0.719,-0.01 1.439,-0.02 2.18,-0.03c3.321,0.046 5.721,0.167 8.409,2.239c1.765,2.013 1.765,2.013 1.859,4.685c-0.952,2.908 -1.352,3.831 -3.844,5.578c-2.674,0.472 -5.326,0.456 -8.036,0.451c-0.786,0.007 -1.572,0.013 -2.382,0.02c-1.661,0.008 -3.322,0.009 -4.983,0.002c-2.541,-0.004 -5.079,0.031 -7.619,0.069c-1.615,0.003 -3.229,0.004 -4.844,0.003c-1.138,0.021 -1.138,0.021 -2.299,0.042c-5.112,-0.067 -5.112,-0.067 -7.17,-1.543c-1.738,-1.966 -2.405,-3.255 -2.511,-5.888c2.277,-5.818 6.906,-5.609 12.349,-5.581Z" style="fill:#061c34;fill-rule:nonzero;"/><path d="M265.103,330.047c0.652,-0.001 1.305,-0.002 1.978,-0.003c1.378,0.001 2.757,0.009 4.136,0.025c2.105,0.022 4.209,0.015 6.315,0.006c1.341,0.004 2.683,0.011 4.024,0.019c0.627,-0.002 1.255,-0.005 1.901,-0.007c3.83,0.062 6.58,0.49 9.422,3.332c0.281,2.484 0.281,2.484 0,5.25c-2.117,2.396 -3.841,3.186 -6.951,3.388c-1.262,0.02 -2.524,0.022 -3.786,0.01c-0.67,0.003 -1.34,0.006 -2.031,0.009c-1.413,0.002 -2.825,-0.003 -4.238,-0.016c-2.161,-0.016 -4.321,-0 -6.483,0.019c-1.374,-0.002 -2.749,-0.006 -4.123,-0.012c-0.968,0.009 -0.968,0.009 -1.956,0.019c-4.445,-0.07 -4.445,-0.07 -6.839,-1.778c-1.609,-2.414 -1.498,-4.057 -1.093,-6.889c2.539,-3.776 5.57,-3.428 9.724,-3.372Z" style="fill:#02152c;fill-rule:nonzero;"/><path d="M542.629,312.419c3.614,1.773 5.753,3.872 7.5,7.5c0.604,3.786 0.432,6.62 -1.266,10.078c-2.353,2.608 -3.829,3.967 -7.4,4.409c-3.372,0.142 -5.795,-0.002 -8.912,-1.362c-2.892,-2.821 -4.611,-5.526 -5.148,-9.58c0.063,-2.809 0.468,-4.453 2.321,-6.612c4.258,-3.793 7.18,-5.119 12.905,-4.433Z" style="fill:#fafcfc;fill-rule:nonzero;"/><path d="M249.379,608.669c6.878,2.07 13.578,6.244 18,12c0.743,1.485 1.485,2.97 2.25,4.5l-34.5,-0c0.955,-5.731 3.301,-8.159 7.5,-12c2.169,-1.464 4.365,-2.679 6.75,-3.75l0,-0.75Z" style="fill:#8faece;fill-rule:nonzero;"/><path d="M394.879,615.419c3.584,3.082 5.321,5.392 7.5,9.75l-30,-0c2.181,-6.542 5.094,-9.588 11.139,-12.791c5.115,-2.251 7.146,-0.257 11.361,3.041Z" style="fill:#8facd0;fill-rule:nonzero;"/><path d="M508.129,337.169c3.814,-0.592 3.814,-0.592 6,-0c1.437,1.58 2.409,3.182 3.434,5.054c0.974,1.781 0.974,1.781 2.677,2.874c0.459,0.354 0.917,0.707 1.389,1.072c0.49,4.658 -0.459,8.964 -1.5,13.5c-5.583,-1.675 -10.59,-4.052 -15.75,-6.75c0.218,-0.763 0.218,-0.763 0.44,-1.541c1.316,-4.706 2.424,-9.404 3.31,-14.209Z" style="fill:#f4f8f9;fill-rule:nonzero;"/><path d="M419.629,397.919l15,-0l0,16.5c-10.547,0.201 -10.547,0.201 -15.75,-1.5c-0.02,-2.219 -0.035,-4.437 -0.047,-6.656c-0.006,-0.632 -0.012,-1.263 -0.019,-1.913c-0.002,-0.605 -0.005,-1.209 -0.007,-1.831c-0.004,-0.558 -0.008,-1.116 -0.012,-1.691c0.085,-1.409 0.085,-1.409 0.835,-2.909Z" style="fill:#91acc9;fill-rule:nonzero;"/><path d="M340.129,428.669c3.124,1.319 4.631,2.902 6,6c0.439,2.946 0.137,4.241 -1.266,6.891c-2.318,2.819 -4.051,4.079 -7.64,4.781c-3.43,-0.618 -5.51,-2.138 -7.594,-4.922c-0.851,-2.319 -1.061,-4.301 -0.75,-6.75c2.621,-5.149 5.559,-6.713 11.25,-6Z" style="fill:#082234;fill-rule:nonzero;"/><path d="M491.629,372.419c3.508,2.499 6.862,5.157 10.125,7.969c0.642,0.551 1.284,1.102 1.945,1.67c1.43,1.611 1.43,1.611 1.43,4.611c-1.337,1.555 -2.637,2.92 -4.125,4.312c-0.393,0.38 -0.787,0.76 -1.192,1.152c-0.971,0.935 -1.951,1.862 -2.933,2.786c-2.326,-2.266 -4.459,-4.539 -6.422,-7.125c-0.443,-0.579 -0.885,-1.158 -1.342,-1.755c-0.408,-0.535 -0.816,-1.069 -1.236,-1.62c-0.997,-1.253 -1.995,-2.504 -3,-3.75c1.127,-2.868 2.851,-4.141 5.25,-6c0.495,-0.743 0.99,-1.485 1.5,-2.25Z" style="fill:#89adcc;fill-rule:nonzero;"/><path d="M501.379,360.419c3.593,0.378 6.73,1.953 9.984,3.422c0.834,0.37 0.834,0.37 1.684,0.748c1.362,0.607 2.722,1.218 4.082,1.83c-0.946,3.133 -2.117,5.754 -3.844,8.531c-0.404,0.656 -0.808,1.311 -1.224,1.987c-0.308,0.489 -0.615,0.978 -0.932,1.482c-3.811,-1.152 -6.318,-3.505 -9.234,-6.094c-0.484,-0.422 -0.968,-0.845 -1.467,-1.28c-1.187,-1.038 -2.368,-2.081 -3.549,-3.126c0.608,-1.11 1.218,-2.219 1.828,-3.328c0.509,-0.927 0.509,-0.927 1.029,-1.872c0.893,-1.55 0.893,-1.55 1.643,-2.3Z" style="fill:#f7fafc;fill-rule:nonzero;"/><path d="M480.369,384.96c1.671,1.061 2.397,1.957 3.444,3.625c0.493,0.785 0.493,0.785 0.996,1.585c0.332,0.546 0.665,1.092 1.008,1.655c0.344,0.541 0.688,1.081 1.043,1.638c2.519,4.072 2.519,4.072 2.519,7.456c-1.561,1.277 -1.561,1.277 -3.609,2.437c-0.67,0.391 -1.34,0.782 -2.031,1.184c-1.86,0.879 -1.86,0.879 -4.11,0.879c-1.255,-2.592 -2.503,-5.186 -3.75,-7.781c-0.358,-0.739 -0.715,-1.478 -1.084,-2.239c-0.507,-1.058 -0.507,-1.058 -1.025,-2.138c-0.314,-0.652 -0.629,-1.304 -0.952,-1.976c-0.689,-1.616 -0.689,-1.616 -0.689,-3.116c1.053,-0.671 2.118,-1.324 3.188,-1.969c0.591,-0.365 1.183,-0.731 1.793,-1.107c1.769,-0.674 1.769,-0.674 3.259,-0.133Z" style="fill:#93afc4;fill-rule:nonzero;"/><path d="M466.879,392.669c0.891,1.531 0.891,1.531 1.606,3.519c0.391,1.062 0.391,1.062 0.791,2.145c0.261,0.745 0.522,1.49 0.791,2.258c0.272,0.748 0.545,1.495 0.826,2.266c0.673,1.85 1.334,3.704 1.986,5.562c-1.946,1.297 -2.978,1.81 -5.156,2.344c-0.493,0.125 -0.986,0.251 -1.494,0.381c-1.808,0.311 -3.519,0.32 -5.35,0.275c-1.684,-5.703 -2.877,-11.369 -3.75,-17.25c1.059,-0.401 2.122,-0.789 3.188,-1.172c0.591,-0.217 1.183,-0.435 1.793,-0.659c2.012,-0.476 2.87,-0.461 4.769,0.331Z" style="fill:#81a6c1;fill-rule:nonzero;"/><path d="M70.879,370.919l1.5,0.75c1.012,3.321 1.208,6.492 -0.422,9.609c-1.721,2.527 -3.546,4.053 -6.328,5.391c-2.653,0.443 -5.035,0.482 -7.5,-0.75c-1.267,-2.535 -1.435,-4.803 -0.75,-7.5c3.662,-5.576 6.906,-7.814 13.5,-7.5Z" style="fill:#f8fcfc;fill-rule:nonzero;"/><path d="M106.129,403.919l9,-0c0.248,5.445 0.495,10.89 0.75,16.5c-8.437,-0 -8.437,-0 -11.719,-0.375c-0.942,-0.104 -0.942,-0.104 -1.904,-0.211c-0.454,-0.054 -0.909,-0.108 -1.377,-0.164c0.548,-3.516 1.775,-6.682 3.047,-9.984c0.317,-0.834 0.317,-0.834 0.64,-1.684c0.518,-1.361 1.04,-2.722 1.563,-4.082Z" style="fill:#7fa5c4;fill-rule:nonzero;"/><path d="M450.379,396.419c1.537,5.837 2.619,11.201 2.25,17.25c-2.073,1.037 -3.785,0.821 -6.094,0.797c-0.821,-0.007 -1.643,-0.014 -2.49,-0.021c-0.948,-0.013 -0.948,-0.013 -1.916,-0.026c-0.598,-5.52 -0.847,-10.948 -0.75,-16.5l4.395,-1.172c1.605,-0.328 1.605,-0.328 4.605,-0.328Z" style="fill:#ebf1f4;fill-rule:nonzero;"/><path d="M72.942,631.731c2.896,0.037 4.624,0.601 6.937,2.438c1.5,2.25 1.5,2.25 1.406,4.828c-0.736,2.996 -1.081,3.998 -3.656,5.672c-2.802,0.868 -5.406,1.333 -8.162,0.138c-2.242,-1.641 -3.096,-3.161 -3.979,-5.763c0.141,-2.625 0.141,-2.625 1.922,-4.781c0.65,-0.526 1.3,-1.052 1.969,-1.594c0.75,-0.75 0.75,-0.75 3.563,-0.938Z" style="fill:#0a2135;fill-rule:nonzero;"/><path d="M51.379,631.919c2.416,1.405 4.122,2.409 4.91,5.203c0.202,2.964 -0.246,4.309 -1.957,6.797c-2.742,1.867 -4.194,1.915 -7.453,1.5c-2.448,-0.68 -2.938,-1.406 -4.359,-3.563c-1.031,-2.82 -1.125,-4.109 -0.141,-6.937c2.746,-3.07 4.962,-3.638 9,-3Z" style="fill:#092139;fill-rule:nonzero;"/><path d="M139.129,396.419c2.334,2.179 4.031,4.418 5.719,7.125c0.664,1.056 0.664,1.056 1.342,2.133c0.978,1.639 1.869,3.27 2.689,4.992c-1.216,0.754 -2.436,1.503 -3.656,2.25c-0.679,0.418 -1.358,0.835 -2.057,1.266c-1.787,0.984 -1.787,0.984 -3.287,0.984c-1.007,-2.2 -2.004,-4.404 -3,-6.609c-0.286,-0.625 -0.572,-1.25 -0.867,-1.894c-0.271,-0.602 -0.542,-1.204 -0.82,-1.824c-0.252,-0.554 -0.503,-1.108 -0.762,-1.678c-0.551,-1.495 -0.551,-1.495 -0.551,-3.745c1.733,-0.99 3.465,-1.98 5.25,-3Z" style="fill:#f2f7f9;fill-rule:nonzero;"/><path d="M149.629,388.169c3.244,1.244 5.321,3.653 7.688,6.094c0.415,0.422 0.831,0.845 1.259,1.28c1.021,1.039 2.038,2.082 3.053,3.126c-0.683,0.831 -1.372,1.659 -2.062,2.484c-0.383,0.461 -0.766,0.923 -1.161,1.398c-1.277,1.368 -1.277,1.368 -4.277,3.618c-4.455,-6.311 -4.455,-6.311 -9,-12.75c1.413,-2.825 2.019,-3.596 4.5,-5.25Z" style="fill:#96b5d3;fill-rule:nonzero;"/><path d="M127.879,402.419c1.212,3.174 2.398,6.354 3.516,9.562c0.282,0.807 0.282,0.807 0.571,1.629c0.413,1.559 0.413,1.559 0.413,4.559c-3.12,0.979 -5.738,1.59 -9,1.5c-0.378,-2.328 -0.752,-4.656 -1.125,-6.984c-0.107,-0.661 -0.215,-1.322 -0.325,-2.003c-0.102,-0.636 -0.203,-1.271 -0.308,-1.926c-0.094,-0.585 -0.188,-1.171 -0.285,-1.774c-0.207,-1.563 -0.207,-1.563 -0.207,-3.813c2.305,-0.683 4.351,-0.817 6.75,-0.75Z" style="fill:#91b2d4;fill-rule:nonzero;"/><path d="M419.629,397.919l15,-0l0,9c-5.697,0.194 -9.819,0.141 -15,-2.25l0,-6.75Z" style="fill:#f8fcfe;fill-rule:nonzero;"/><path d="M286.276,77.218c1.353,0.451 1.353,0.451 2.853,1.67c1.048,2.49 1.037,4.356 0.75,7.031c-0.797,1.781 -0.797,1.781 -2.25,3c-2.912,0.809 -4.553,1.044 -7.359,-0.141c-1.746,-1.446 -2.52,-2.186 -3.141,-4.359c0.06,-2.865 0.436,-4.129 2.297,-6.328c2.605,-1.386 4.006,-1.42 6.85,-0.873Z" style="fill:#f3f6f8;fill-rule:nonzero;"/><path d="M345.379,136.169c2.297,1.547 2.297,1.547 3.75,3.75c0.052,2.969 -0.322,4.609 -1.969,7.078c-2.553,1.68 -4.036,1.697 -7.031,1.172c-2.25,-1.922 -2.25,-1.922 -3.75,-4.5c0,-2.66 0.269,-4.373 1.547,-6.703c2.423,-1.329 4.813,-1.335 7.453,-0.797Z" style="fill:#f2f6f8;fill-rule:nonzero;"/><path d="M241.879,588.419l24.75,-0l0,9c-0.68,-0.253 -1.359,-0.507 -2.059,-0.768c-7.597,-2.781 -14.614,-4.591 -22.691,-5.232l0,-3Z" style="fill:#96a9c4;fill-rule:nonzero;"/><path d="M595.879,632.669c2.156,1.125 2.156,1.125 3.75,3c0.538,2.117 0.538,3.883 0,6c-1.93,2.271 -3.114,2.896 -6.047,3.375c-2.203,-0.375 -2.203,-0.375 -3.984,-1.5c-1.71,-2.63 -1.832,-4.822 -1.219,-7.875c2.024,-3.113 3.894,-3.589 7.5,-3Z" style="fill:#061b32;fill-rule:nonzero;"/><rect x="241.879" y="577.169" width="24.75" height="4.5" style="fill:#a0b4cb;fill-rule:nonzero;"/><rect x="349.129" y="577.169" width="24.75" height="4.5" style="fill:#a3bbce;fill-rule:nonzero;"/><path d="M348.379,588.419l25.5,-0l0,2.25c-0.978,0.119 -1.957,0.238 -2.965,0.36c-6.917,0.903 -13.115,1.858 -19.447,4.899c-1.588,0.741 -1.588,0.741 -3.088,0.741l0,-8.25Z" style="fill:#889fb4;fill-rule:nonzero;"/><path d="M491.629,372.419c0.974,0.68 1.942,1.369 2.906,2.062c0.54,0.383 1.079,0.766 1.635,1.161c1.523,1.333 2.193,2.422 2.959,4.277c-0.407,0.353 -0.814,0.706 -1.233,1.069c-0.537,0.467 -1.073,0.934 -1.626,1.415c-0.531,0.461 -1.062,0.923 -1.609,1.398c-1.301,1.162 -2.548,2.384 -3.782,3.618c-1.98,-2.228 -3.96,-4.455 -6,-6.75c1.528,-3.057 2.633,-3.972 5.25,-6c0.495,-0.743 0.99,-1.485 1.5,-2.25Z" style="fill:#f6fafc;fill-rule:nonzero;"/><path d="M341.629,90.419c2.156,1.969 2.156,1.969 3.75,4.5c0.121,3.019 -0.376,4.083 -2.391,6.328c-2.109,1.172 -2.109,1.172 -4.406,1.172c-2.571,-0.875 -3.666,-1.504 -5.203,-3.75c-0.469,-2.625 -0.469,-2.625 0,-5.25c2.524,-2.29 4.816,-3.881 8.25,-3Z" style="fill:#eef3f5;fill-rule:nonzero;"/><path d="M313.129,285.419c2.156,1.172 2.156,1.172 3.75,3c0.392,2.746 0.303,4.512 -0.75,7.078c-1.957,1.529 -3.606,1.552 -6.044,1.403c-2.17,-0.345 -3.12,-0.7 -4.456,-2.481c-0.424,-3.343 -0.619,-5.048 1.219,-7.875c2.336,-1.476 3.56,-1.569 6.281,-1.125Z" style="fill:#f3f8f9;fill-rule:nonzero;"/><path d="M215.629,284.669c2.25,1.594 2.25,1.594 3.75,3.75c0,2.405 -0.368,3.825 -1.547,5.906c-2.39,1.388 -4.817,1.411 -7.453,0.844c-2.073,-1.814 -2.849,-2.975 -3.375,-5.672c0.972,-4.739 4.228,-5.522 8.625,-4.828Z" style="fill:#f3f8f9;fill-rule:nonzero;"/><path d="M480.493,384.896c2.343,1.729 3.142,3.647 4.386,6.273c-0.917,2.753 -2.128,3.224 -4.585,4.6c-1.458,0.67 -2.85,1.061 -4.415,1.4c-0.629,-1.217 -1.253,-2.436 -1.875,-3.656c-0.348,-0.679 -0.696,-1.358 -1.055,-2.057c-0.82,-1.787 -0.82,-1.787 -0.82,-3.287c1.053,-0.671 2.118,-1.324 3.188,-1.969c0.591,-0.365 1.183,-0.731 1.793,-1.107c1.769,-0.674 1.769,-0.674 3.383,-0.197Z" style="fill:#f3f8f9;fill-rule:nonzero;"/><path d="M509.629,363.419c3.713,1.485 3.713,1.485 7.5,3c-1.178,4.475 -3.563,8.122 -6,12c-2.229,-0.843 -4.001,-1.667 -6,-3c0.301,-2.485 0.986,-4.297 2.25,-6.422c1.639,-2.541 1.639,-2.541 2.25,-5.578Z" style="fill:#87b4d2;fill-rule:nonzero;"/><path d="M466.879,392.669c0.785,1.28 0.785,1.28 1.313,2.859c0.181,0.516 0.363,1.031 0.55,1.562c0.387,1.579 0.387,1.579 0.387,4.579c-3.465,0.495 -6.93,0.99 -10.5,1.5c-0.495,-2.97 -0.99,-5.94 -1.5,-9c7.222,-2.655 7.222,-2.655 9.75,-1.5Z" style="fill:#f1f6f8;fill-rule:nonzero;"/><path d="M449.629,405.419l3,0.75l0,7.5c-2.073,1.037 -3.785,0.821 -6.094,0.797c-0.821,-0.007 -1.643,-0.014 -2.49,-0.021c-0.948,-0.013 -0.948,-0.013 -1.916,-0.026l0,-7.5c1.098,-0.108 2.197,-0.217 3.328,-0.328c2.311,-0.073 2.311,-0.073 4.172,-1.172Z" style="fill:#92afcd;fill-rule:nonzero;"/><path d="M423.379,508.169c1.406,0.797 1.406,0.797 2.25,2.25c0.234,2.672 0.234,2.672 0,5.25c-1.5,1.5 -1.5,1.5 -4.078,1.734c-2.672,-0.234 -2.672,-0.234 -4.125,-1.078c-1.175,-2.073 -1.089,-3.567 -0.797,-5.906c1.657,-2.761 3.736,-2.627 6.75,-2.25Z" style="fill:#031e35;fill-rule:nonzero;"/><path d="M421.082,490.685c2.297,0.234 2.297,0.234 3.703,1.031c1.326,2.283 1.12,4.125 0.844,6.703c-0.891,1.453 -0.891,1.453 -2.25,2.25c-1.828,0.375 -1.828,0.375 -3.75,-0c-1.781,-1.594 -1.781,-1.594 -3,-3.75c0.142,-3.61 0.532,-5.817 4.453,-6.234Z" style="fill:#062039;fill-rule:nonzero;"/><path d="M424.129,474.419c1.453,0.891 1.453,0.891 2.25,2.25c0.443,2.465 0.21,3.43 -1.172,5.531c-1.828,1.219 -1.828,1.219 -4.547,1.172c-2.531,-0.703 -2.531,-0.703 -4.031,-2.953c-0.262,-2.096 -0.279,-3.274 0.797,-5.109c2.273,-1.394 4.104,-1.17 6.703,-0.891Z" style="fill:#07243d;fill-rule:nonzero;"/><path d="M368.301,160.31c2.578,0.609 2.578,0.609 4.078,2.859c-0.333,4.083 -0.333,4.083 -2.25,6c-2.578,0.281 -2.578,0.281 -5.25,-0c-1.5,-1.219 -1.5,-1.219 -2.25,-3c0.094,-2.344 0.094,-2.344 0.75,-4.5c2.25,-1.5 2.25,-1.5 4.922,-1.359Z" style="fill:#f1f6f8;fill-rule:nonzero;"/><path d="M144.379,404.669c3.656,3.469 3.656,3.469 4.5,6c-1.216,0.754 -2.436,1.503 -3.656,2.25c-0.679,0.418 -1.358,0.835 -2.057,1.266c-1.787,0.984 -1.787,0.984 -3.287,0.984c-0.504,-0.967 -1.003,-1.936 -1.5,-2.906c-0.278,-0.54 -0.557,-1.079 -0.844,-1.635c-0.656,-1.459 -0.656,-1.459 -0.656,-2.959l7.5,-3Z" style="fill:#8aaaca;fill-rule:nonzero;"/><path d="M517.879,343.919c1.875,0.75 1.875,0.75 3.75,2.25c0.573,4.663 -0.488,8.945 -1.5,13.5c-2.227,-0.743 -4.455,-1.485 -6.75,-2.25c0.464,-0.835 0.928,-1.671 1.406,-2.531c1.785,-3.532 2.489,-7.082 3.094,-10.969Z" style="fill:#85a9cc;fill-rule:nonzero;"/><path d="M423.379,282.419c1.359,0.844 1.359,0.844 2.25,2.25c0.319,3.058 0.235,4.148 -1.5,6.75c-2.566,0.28 -4.426,0.478 -6.703,-0.844c-1.189,-2.097 -1.142,-3.543 -0.797,-5.906c2.023,-2.248 3.787,-2.706 6.75,-2.25Z" style="fill:#031838;fill-rule:nonzero;"/><path d="M106.879,403.919l8.25,-0l0,9.75c-5.616,-0.936 -5.616,-0.936 -8.25,-4.5c-0.234,-2.859 -0.234,-2.859 0,-5.25Z" style="fill:#f0f5f7;fill-rule:nonzero;"/><path d="M127.879,402.419c0.38,0.951 0.754,1.905 1.125,2.859c0.209,0.531 0.418,1.062 0.633,1.609c0.492,1.532 0.492,1.532 0.492,3.782c-2.063,0.688 -3.27,0.832 -5.391,0.797c-1.415,-0.023 -1.415,-0.023 -2.859,-0.047c-0.247,-2.723 -0.495,-5.445 -0.75,-8.25c2.484,-0.621 4.245,-0.82 6.75,-0.75Z" style="fill:#eef4f6;fill-rule:nonzero;"/><path d="M149.629,388.169c2.134,0.957 3.886,1.811 5.25,3.75c0.047,1.781 0.047,1.781 -0.75,3.75c-1.411,1.43 -2.879,2.543 -4.5,3.75c-1.485,-1.98 -2.97,-3.96 -4.5,-6c1.413,-2.825 2.019,-3.596 4.5,-5.25Z" style="fill:#f5fafb;fill-rule:nonzero;"/><path d="M244.504,167.481c2.625,0.188 2.625,0.188 4.125,1.688c0.248,2.328 0.379,3.868 -0.844,5.906c-2.089,1.254 -3.521,1.192 -5.906,0.844c-1.453,-1.266 -1.453,-1.266 -2.25,-3c0.263,-3.68 1.023,-5.162 4.875,-5.438Z" style="fill:#eff6f7;fill-rule:nonzero;"/><path d="M97.129,402.419l2.25,-0c-0.212,5.611 -2.387,9.488 -5.25,14.25l-3,-0c-0.651,-2.039 -0.978,-3.16 -0.75,-5.25c1.493,-2.482 3.349,-4.575 5.25,-6.75c0.495,-0.743 0.99,-1.485 1.5,-2.25Z" style="fill:#99bcda;fill-rule:nonzero;"/><path d="M343.879,463.169l1.5,0.75l0,37.5c-0.742,0.371 -0.742,0.371 -1.5,0.75c-0.126,-5.434 -0.246,-10.867 -0.362,-16.301c-0.04,-1.85 -0.081,-3.7 -0.124,-5.55c-0.061,-2.653 -0.118,-5.306 -0.173,-7.959c-0.02,-0.832 -0.041,-1.665 -0.062,-2.523c-0.015,-0.766 -0.03,-1.532 -0.045,-2.321c-0.015,-0.678 -0.03,-1.355 -0.046,-2.054c0.062,-1.542 0.062,-1.542 0.812,-2.292Z" style="fill:#333f4d;fill-rule:nonzero;"/><path d="M160.879,371.669l0.75,-0l0,16.5c-1.98,-1.485 -3.96,-2.97 -6,-4.5c0,-3.278 0.499,-4.158 2.203,-6.844c0.409,-0.651 0.818,-1.303 1.239,-1.974c0.524,-0.833 0.524,-0.833 1.058,-1.682l0.75,-1.5Z" style="fill:#f0f7f8;fill-rule:nonzero;"/><path d="M308.254,96.231c2.625,0.188 2.625,0.188 4.125,1.688c-0.433,4.933 -0.433,4.933 -1.5,6c-3.957,0.344 -3.957,0.344 -5.906,-0.891c-1.131,-1.822 -1.114,-3.002 -0.844,-5.109c1.5,-1.5 1.5,-1.5 4.125,-1.688Z" style="fill:#f4f8fb;fill-rule:nonzero;"/><path d="M349.129,589.169l9.75,-0l0,3.75c-3.217,1.237 -6.435,2.475 -9.75,3.75l0,-7.5Z" style="fill:#aec3d7;fill-rule:nonzero;"/><path d="M325.129,170.481c2.25,0.188 2.25,0.188 3.75,1.688c0.188,2.25 0.188,2.25 0,4.5c-1.5,1.5 -1.5,1.5 -3.328,1.734c-1.922,-0.234 -1.922,-0.234 -3.281,-1.125c-1.192,-1.819 -1.165,-2.975 -0.891,-5.109c1.5,-1.5 1.5,-1.5 3.75,-1.688Z" style="fill:#f3f9fa;fill-rule:nonzero;"/><path d="M344.629,293.669l1.5,-0c0.905,2.714 0.831,5.194 0.797,8.016c-0.003,0.526 -0.007,1.052 -0.01,1.595c-0.009,1.296 -0.023,2.593 -0.037,3.889c-0.742,0.247 -1.485,0.495 -2.25,0.75l0,-14.25Z" style="fill:#112333;fill-rule:nonzero;"/><path d="M241.879,589.169l9.75,-0c-0.247,0.742 -0.495,1.485 -0.75,2.25l-9,-0l0,-2.25Z" style="fill:#adbdd9;fill-rule:nonzero;"/><path d="M481.879,363.419c0.743,0.247 1.485,0.495 2.25,0.75c-1.214,1.254 -2.434,2.503 -3.656,3.75c-0.679,0.696 -1.358,1.392 -2.057,2.109c-1.787,1.641 -1.787,1.641 -3.287,1.641c1.056,-2.411 2.328,-3.991 4.219,-5.813c0.474,-0.46 0.947,-0.92 1.435,-1.394c0.543,-0.516 0.543,-0.516 1.096,-1.043Z" style="fill:#162b3d;fill-rule:nonzero;"/><path d="M319.129,277.169c1.219,-0.02 2.438,-0.035 3.656,-0.047c0.679,-0.009 1.358,-0.017 2.057,-0.026c1.787,0.073 1.787,0.073 3.287,0.823c-0.247,0.495 -0.495,0.99 -0.75,1.5c-2.97,-0.248 -5.94,-0.495 -9,-0.75l0.75,-1.5Z" style="fill:#1a2638;fill-rule:nonzero;"/><path d="M84.379,511.919c1.871,1.871 1.77,2.755 1.969,5.344c0.056,0.682 0.112,1.365 0.17,2.068c0.055,0.786 0.055,0.786 0.111,1.588l1.5,-0l0.75,2.25l-2.25,-0c-0.38,-1.311 -0.754,-2.624 -1.125,-3.938c-0.209,-0.73 -0.418,-1.461 -0.633,-2.214c-0.492,-2.098 -0.492,-2.098 -0.492,-5.098Z" style="fill:#203144;fill-rule:nonzero;"/><path d="M520.879,355.169c-0.247,1.485 -0.495,2.97 -0.75,4.5c-1.485,-0.495 -2.97,-0.99 -4.5,-1.5l0,-1.5c3.563,-1.5 3.563,-1.5 5.25,-1.5Z" style="fill:#80a5c4;fill-rule:nonzero;"/><path d="M96.379,460.919l0.75,-0c0.248,3.217 0.495,6.435 0.75,9.75l-1.5,-0c-0.147,-1.062 -0.286,-2.124 -0.422,-3.188c-0.078,-0.591 -0.156,-1.183 -0.237,-1.793c-0.091,-1.773 0.137,-3.082 0.659,-4.769Z" style="fill:#232f40;fill-rule:nonzero;"/><path d="M385.879,128.669c1.467,2.2 2.672,4.337 3.75,6.75c-0.247,0.495 -0.495,0.99 -0.75,1.5c-2.25,-1.5 -2.25,-1.5 -2.634,-3.123c-0.043,-0.609 -0.087,-1.218 -0.132,-1.846c-0.049,-0.613 -0.098,-1.226 -0.149,-1.857c-0.028,-0.47 -0.056,-0.94 -0.085,-1.424Z" style="fill:#182e3b;fill-rule:nonzero;"/><path d="M289.129,146.669c-1.118,2.846 -2.818,4.208 -5.25,6c-0.495,-0.248 -0.99,-0.495 -1.5,-0.75c0.839,-0.88 1.684,-1.754 2.531,-2.625c0.705,-0.731 0.705,-0.731 1.424,-1.477c1.295,-1.148 1.295,-1.148 2.795,-1.148Z" style="fill:#071627;fill-rule:nonzero;"/><path d="M208.879,283.169c0.743,0.495 1.485,0.99 2.25,1.5c-1.237,0.99 -2.475,1.98 -3.75,3c-0.495,-0.99 -0.99,-1.98 -1.5,-3l3,-1.5Z" style="fill:#102236;fill-rule:nonzero;"/><path d="M293.629,18.419l1.5,-0c-0.432,1.789 -0.917,3.5 -1.5,5.25l-2.25,-0c1.406,-4.406 1.406,-4.406 2.25,-5.25Z" style="fill:#02101e;fill-rule:nonzero;"/><path d="M508.129,367.919c0.95,2.851 0.429,4.039 -0.75,6.75c-0.742,0.247 -1.485,0.495 -2.25,0.75c0.424,-2.969 1.357,-4.999 3,-7.5Z" style="fill:#7b9eb8;fill-rule:nonzero;"/><path d="M84.909,216.924l1.779,2.036c-1.968,2.129 -1.968,2.129 -3.976,4.302c-0.096,-0.736 -0.192,-1.473 -0.291,-2.231l1.487,-0.195l0.137,-1.483c0.218,-1.589 0.218,-1.589 0.864,-2.429Z" style="fill:#0f2532;fill-rule:nonzero;"/><path d="M1.161,212.744l2.231,-0.292c-0.452,2.328 -0.452,2.328 -1.842,3.267c-0.195,2.316 -0.195,2.316 -0.161,4.559c-0.245,0.032 -0.49,0.064 -0.743,0.097c-0.83,-4.903 -0.83,-4.903 0.515,-7.631Z" style="fill:#273b4d;fill-rule:nonzero;"/><path d="M376.879,108.419c1.493,2.24 2.206,4.198 3,6.75c-0.742,0.247 -1.485,0.495 -2.25,0.75c-0.247,-2.475 -0.495,-4.95 -0.75,-7.5Z" style="fill:#122435;fill-rule:nonzero;"/><path d="M68.629,641.669l0.75,1.5l3.75,-0c0.248,0.742 0.495,1.485 0.75,2.25c-2.227,-0.371 -2.227,-0.371 -4.5,-0.75c-0.247,-0.99 -0.495,-1.98 -0.75,-3Z" style="fill:#223242;fill-rule:nonzero;"/><path d="M189.379,618.419l2.25,-0l0,2.25c-1.875,1.266 -1.875,1.266 -3.75,2.25c0.656,-3.656 0.656,-3.656 1.5,-4.5Z" style="fill:#102435;fill-rule:nonzero;"/><path d="M241.879,589.169l5.25,-0c-0.247,0.742 -0.495,1.485 -0.75,2.25l-4.5,-0l0,-2.25Z" style="fill:#a0b6cf;fill-rule:nonzero;"/><path d="M370.879,390.419c0.743,0.495 1.485,0.99 2.25,1.5l0,1.5c-1.732,0.247 -3.465,0.495 -5.25,0.75c0.248,-0.743 0.495,-1.485 0.75,-2.25l2.25,-0l0,-1.5Z" style="fill:#a4b7c8;fill-rule:nonzero;"/><path d="M56.629,379.919l0.75,-0l0.44,4.614c0.102,0.457 0.204,0.915 0.31,1.386l1.5,0.75l-1.5,-0c-0.247,0.495 -0.495,0.99 -0.75,1.5c-0.75,-0.75 -0.75,-0.75 -0.823,-2.464c0.009,-0.687 0.017,-1.375 0.026,-2.083c0.007,-0.689 0.014,-1.379 0.021,-2.089c0.008,-0.533 0.017,-1.065 0.026,-1.614Z" style="fill:#a9bdd2;fill-rule:nonzero;"/><path d="M159.379,347.669l1.5,-0c0.277,3.415 0.277,3.415 -1.125,5.109c-0.371,0.294 -0.742,0.588 -1.125,0.891c-0.495,-0.248 -0.99,-0.495 -1.5,-0.75c0.743,-1.733 1.485,-3.465 2.25,-5.25Z" style="fill:#0f2433;fill-rule:nonzero;"/><path d="M532.879,313.919l1.5,0.75c-0.713,0.879 -1.433,1.753 -2.156,2.625c-0.4,0.487 -0.801,0.974 -1.213,1.477c-0.373,0.378 -0.746,0.757 -1.131,1.148l-1.5,-0c1.082,-2.524 2.5,-4.133 4.5,-6Z" style="fill:#e8f2f5;fill-rule:nonzero;"/><path d="M387.379,246.419l9.75,-0l0,0.75c-1.078,0.126 -2.156,0.251 -3.234,0.375c-0.601,0.07 -1.201,0.139 -1.82,0.211c-1.696,0.164 -1.696,0.164 -3.946,0.164c-0.247,-0.495 -0.495,-0.99 -0.75,-1.5Z" style="fill:#809bb5;fill-rule:nonzero;"/></svg>